<?xml version="1.0" standalone="no"?>
<!DOCTYPE svg PUBLIC "-//W3C//DTD SVG 20010904//EN"
 "http://www.w3.org/TR/2001/REC-SVG-20010904/DTD/svg10.dtd">
<svg version="1.0" xmlns="http://www.w3.org/2000/svg"
 width="1280.000000pt" height="1280.000000pt" viewBox="0 0 1280.000000 1280.000000"
 preserveAspectRatio="xMidYMid meet">
<metadata>
Created by potrace 1.11, written by Peter Selinger 2001-2013
</metadata>
<g transform="translate(0.000000,1280.000000) scale(0.100000,-0.100000)"
fill="#000000" stroke="none">
<path d="M3370 9250 l0 -770 39 0 38 0 7 85 c15 197 77 350 194 476 102 111
241 191 430 248 245 75 336 81 1196 81 l736 0 -3 -2862 c-3 -2601 -5 -2870
-20 -2938 -53 -243 -140 -377 -302 -461 -101 -53 -202 -73 -367 -74 l-138 0 0
-42 0 -43 1220 0 1220 0 1 25 c1 14 2 32 3 41 1 15 -10 17 -84 15 -99 -2 -243
13 -315 35 -61 18 -158 68 -205 106 -109 87 -186 249 -211 445 -16 117 -15
-137 -11 3121 l2 2632 728 0 c868 0 963 -7 1225 -90 246 -79 418 -214 517
-410 41 -81 67 -183 76 -299 l7 -91 38 0 39 0 0 770 0 770 -3030 0 -3030 0 0
-770z"/>
<path d="M2897 9984 c-3 -11 -8 -35 -11 -54 -21 -132 -108 -665 -116 -710 -9
-52 -123 -743 -156 -950 -8 -52 -19 -117 -24 -145 -6 -27 -21 -122 -35 -210
-14 -88 -29 -182 -35 -210 -10 -53 -21 -123 -100 -610 -27 -170 -54 -332 -59
-360 -6 -27 -17 -93 -25 -145 -48 -298 -127 -782 -135 -825 -6 -27 -19 -108
-31 -180 -11 -71 -27 -173 -36 -225 -8 -52 -19 -117 -25 -145 -5 -27 -25 -149
-44 -270 -19 -121 -40 -245 -45 -275 -6 -30 -37 -221 -70 -425 -33 -203 -65
-399 -71 -435 -51 -296 -151 -482 -325 -606 -64 -46 -177 -99 -244 -116 -135
-33 -206 -41 -370 -42 l-174 -1 -7 -35 c-4 -19 -6 -36 -5 -37 1 -2 621 -3
1376 -4 l1374 -1 9 27 c18 53 7 59 -101 52 -189 -13 -393 20 -529 85 -80 38
-166 120 -206 195 -56 105 -71 269 -43 467 8 55 22 155 31 221 8 66 20 152 25
190 10 69 50 365 70 520 6 44 15 107 20 140 5 33 16 114 25 180 32 247 53 399
65 480 5 33 16 114 25 180 8 66 19 152 25 190 5 39 14 102 19 140 6 39 17 124
26 190 9 66 20 152 25 190 6 39 15 103 20 143 6 39 15 105 20 145 6 39 17 124
25 187 8 63 20 147 25 185 17 121 48 345 65 475 8 69 20 152 25 185 5 33 17
114 25 180 9 66 18 129 20 140 2 11 4 22 4 25 1 2 24 -34 52 -80 29 -47 75
-123 104 -170 28 -47 132 -218 230 -380 98 -162 201 -333 230 -380 112 -183
279 -458 310 -510 30 -51 197 -327 320 -530 138 -227 403 -663 440 -725 23
-38 107 -176 185 -305 79 -129 162 -266 185 -305 23 -38 79 -131 124 -205 78
-127 124 -203 404 -665 63 -104 119 -191 126 -193 8 -3 11 169 11 663 l0 666
-269 447 c-147 246 -422 704 -611 1017 -188 314 -366 608 -394 655 -29 47 -75
123 -103 170 -28 47 -223 371 -433 720 -210 349 -419 695 -463 769 -77 129
-80 133 -93 110 -34 -61 -74 -248 -74 -349 0 -21 -8 -47 -17 -59 -20 -24 -78
-37 -117 -27 -58 14 -56 -2 -56 479 l0 441 -82 135 c-203 339 -311 517 -318
525 -5 4 -10 0 -13 -10z"/>
<path d="M9697 9672 l-197 -328 0 -441 c0 -516 6 -488 -99 -488 -74 0 -92 15
-97 81 -12 136 -28 230 -50 291 -14 37 -28 71 -32 75 -4 4 -145 -221 -312
-500 -168 -279 -319 -529 -336 -557 -17 -27 -61 -99 -96 -160 -36 -60 -238
-396 -448 -745 -210 -349 -560 -930 -776 -1290 l-394 -655 0 -662 c0 -366 4
-664 9 -667 5 -3 44 54 88 127 146 240 455 751 511 842 30 50 80 133 112 185
31 52 114 190 185 305 70 116 167 275 215 355 48 80 145 240 215 355 70 116
197 325 282 465 195 320 207 341 429 706 101 166 273 450 382 630 109 181 214
354 232 384 19 30 41 67 50 83 16 26 16 24 34 -110 10 -76 21 -165 26 -198 24
-166 32 -225 55 -400 14 -104 30 -219 35 -255 5 -36 16 -119 25 -185 16 -125
30 -227 45 -330 5 -33 14 -96 19 -140 31 -235 42 -317 51 -380 11 -75 41 -296
66 -485 8 -63 19 -142 24 -175 5 -33 14 -96 20 -140 5 -44 19 -147 31 -230 32
-235 36 -270 58 -440 12 -88 30 -221 41 -295 10 -74 26 -187 34 -250 9 -63 25
-181 36 -261 24 -173 25 -213 5 -313 -44 -232 -192 -358 -490 -417 -33 -7
-136 -12 -228 -12 l-168 1 3 -40 3 -40 1374 1 c756 1 1377 3 1379 6 2 2 1 20
-2 39 l-7 34 -167 -1 c-95 0 -199 5 -242 12 -305 52 -498 187 -612 428 -49
103 -69 183 -107 420 -17 103 -35 211 -41 238 -5 28 -21 124 -35 215 -15 91
-33 203 -41 250 -9 47 -19 112 -25 145 -5 33 -20 130 -34 215 -14 85 -30 180
-35 210 -5 30 -16 96 -24 145 -9 50 -38 230 -66 400 -27 171 -54 333 -59 360
-10 53 -21 115 -101 610 -27 171 -54 333 -59 360 -6 28 -17 93 -25 145 -44
273 -127 782 -136 833 -5 31 -15 83 -20 115 -6 31 -21 129 -35 217 -14 88 -29
183 -34 210 -11 57 -20 115 -56 340 -14 88 -30 183 -36 210 -10 54 -123 749
-135 828 -3 26 -9 47 -13 47 -4 0 -96 -148 -204 -328z"/>
</g>
</svg>
